<?xml version="1.0"?><svg width="640" height="480" xmlns="http://www.w3.org/2000/svg" xmlns:xlink="http://www.w3.org/1999/xlink">
 <title>Panda</title>
 <defs>
  <linearGradient id="linearGradient3346">
   <stop stop-color="#ffffff" id="stop3348" offset="0"/>
   <stop stop-color="#fbfbfb" offset="0.290461" id="stop3350"/>
   <stop stop-color="#cbcbcb" id="stop3352" offset="0.498885"/>
   <stop stop-color="#a7a7a7" id="stop3354" offset="0.58028"/>
   <stop stop-color="#aaaaaa" offset="0.66102" id="stop3356"/>
   <stop stop-color="#ffffff" id="stop3358" offset="1"/>
  </linearGradient>
  <linearGradient id="linearGradient3843">
   <stop stop-color="#ffffff" id="stop3845" offset="0"/>
   <stop stop-color="#fbfbfb" offset="0.254678" id="stop3847"/>
   <stop stop-color="#cbcbcb" id="stop3849" offset="0.462856"/>
   <stop stop-color="#a7a7a7" id="stop3851" offset="0.559565"/>
   <stop stop-color="#aaaaaa" offset="0.705222" id="stop3853"/>
   <stop stop-color="#ffffff" id="stop3855" offset="1"/>
  </linearGradient>
  <linearGradient id="linearGradient4074-3">
   <stop stop-color="#ffffff" offset="0" id="stop4076-1"/>
   <stop stop-color="#fbfbfb" id="stop4084-2" offset="0.18"/>
   <stop stop-color="#cbcbcb" offset="0.38101" id="stop4088-3"/>
   <stop stop-color="#a7a7a7" offset="0.5" id="stop4086-3"/>
   <stop stop-color="#aaaaaa" id="stop4082-4" offset="0.570979"/>
   <stop stop-color="#ffffff" offset="1" id="stop4078-1"/>
  </linearGradient>
  <radialGradient r="97.160934" fy="192.84895" fx="111.45487" cy="192.84895" cx="111.45487" gradientTransform="matrix(-0.70718578,-2.0786505,-1.8035857,0.53209806,682.00797,628.63106)" gradientUnits="userSpaceOnUse" id="radialGradient3409" xlink:href="#linearGradient3843"/>
  <radialGradient r="37.908459" fy="410.72989" fx="-207.8719" cy="410.72989" cx="-207.8719" gradientTransform="matrix(2.2728189,0.69527726,-0.52454986,1.7028343,482.96105,-135.01158)" gradientUnits="userSpaceOnUse" id="radialGradient3411" xlink:href="#linearGradient4074-3"/>
  <radialGradient r="167.97633" fy="250.66191" fx="97.427582" cy="250.66191" cx="97.427582" gradientTransform="matrix(1.9161065,0.3488259,0.5106963,-2.8051644,531.32072,1001.8487)" gradientUnits="userSpaceOnUse" id="radialGradient3413" xlink:href="#linearGradient3346"/>
 </defs>
 <metadata id="metadata7">image/svg+xml</metadata>
 <g>
  <title>Layer 1</title>
  <g id="svg_1">
   <path fill="#000000" stroke="#000000" stroke-width="9" stroke-linecap="square" stroke-miterlimit="4" d="m232.423889,298.125427c-10.750366,22.70105 -26.882004,44.012146 -54.461288,30.433533c-15.134644,-7.451355 -32.208878,-21.148254 -37.595215,-25.92157c-4.680573,-4.147827 -7.746185,-10.753723 -4.973831,-17.10675c10.392502,-23.814728 33.916138,-10.289124 48.527542,-3.894867c32.125229,14.058624 5.631454,-22.453156 35.108963,-13.705994c7.437958,2.207153 20.291351,10.874664 13.393768,30.195648l0.000061,0z" id="path3133-6-4-6-9-5-8"/>
   <path fill="#000000" stroke="#000000" stroke-width="9" stroke-linecap="square" stroke-miterlimit="4" d="m486.374329,361.922974c-8.186707,23.746216 -31.949371,36.328796 -60.855499,25.867798c-15.862823,-5.740356 -24.266327,-7.100464 -30.145233,-11.251953c-5.108643,-3.607544 -8.88266,-9.835938 -6.826294,-16.455505c7.708496,-24.813782 21.14743,-24.444092 36.37381,-19.696777c33.477264,10.437622 32.183197,-11.016479 44.817627,-7.00177c7.394135,2.349609 21.36496,8.575439 16.63559,28.538208z" id="path3133-6-4-6-9-5-7"/>
   <path fill="url(#radialGradient3409)" stroke="#000000" stroke-width="9" stroke-linecap="square" stroke-miterlimit="4" d="m243.28952,260.605286c-43.469025,-16.062866 -70.42395,-4.49939 -93.706787,40.95874l-9.053009,25.011047c5.812576,25.897278 23.296478,57.822083 69.638321,57.901489c67.338058,0.115356 109.127731,-17.70697 120.107956,-36.583191c3.645599,-21.531006 -17.033569,-61.438782 -86.986481,-87.288086z" id="path3133-6-8-5"/>
   <path fill="url(#radialGradient3411)" stroke="#000000" stroke-width="10.518277" stroke-linecap="square" stroke-miterlimit="4" id="path3683" d="m186.05838,237.861938c-15.044647,-4.75354 -31.002472,3.298676 -35.642838,17.985107c-4.64035,14.686462 3.793991,30.445679 18.838638,35.199219c15.044647,4.75354 31.002487,-3.298706 35.642838,-17.985138c4.64035,-14.686462 -3.793976,-30.445679 -18.838638,-35.199188z"/>
   <g id="g3374">
    <path fill="#000000" stroke="#000000" stroke-width="20.998421" stroke-linecap="square" stroke-miterlimit="4" d="m435.840637,117.173492c-8.63266,23.890106 5.998383,51.051331 32.679382,60.666229c26.680969,9.614929 55.30835,-1.957397 63.94104,-25.847504c8.63269,-23.890106 -5.998413,-51.0513 -32.679382,-60.666229c-26.680969,-9.614929 -55.30835,1.957397 -63.94104,25.847504z" id="path4104-4-5"/>
    <path fill="url(#radialGradient3413)" stroke="#000000" stroke-width="9" stroke-linecap="square" stroke-miterlimit="4" id="path3133-8-5-7-1" d="m221.677979,263.208038c4.877625,81.786469 107.881866,126.196686 202.661652,111.860077c90.774078,-13.730713 137.695221,-69.519104 122.132294,-149.945251c-15.934387,-82.346161 -85.643158,-143.516235 -177.272766,-137.971588c-91.629578,5.544647 -152.398773,94.270264 -147.521179,176.056763z"/>
    <path fill="#000000" stroke="#000000" stroke-width="19.631777" stroke-linecap="square" stroke-miterlimit="4" d="m202.079865,202.756744c20.885437,10.268738 49.367645,-1.726685 63.616821,-26.792511c14.249176,-25.065887 8.869385,-53.710175 -12.016052,-63.978912c-20.885437,-10.268738 -49.367615,1.726624 -63.616806,26.792511c-14.249161,25.065826 -8.8694,53.710175 12.016037,63.978912z" id="path4106-8-8-7"/>
    <path fill="#000000" stroke="#000000" stroke-width="9" stroke-linecap="square" stroke-miterlimit="4" id="path4134-2-8-1" d="m418.246552,312.234436c0.478424,8.02179 10.428375,13.953674 22.209747,13.240784c11.781281,-0.712891 20.954651,-7.802002 20.476257,-15.823792c-0.478394,-8.021851 -10.630798,-17.348267 -22.412079,-16.635376c-11.781372,0.712891 -20.752319,11.196533 -20.273926,19.218384z"/>
    <path fill="none" stroke="#000000" stroke-width="9" stroke-linecap="square" stroke-miterlimit="4" id="path4137-4-1" d="m476.497375,315.5672c0,0 10.5755,24.947205 -13.957031,27.197815c-11.614594,1.075317 -23.083405,-16.989197 -23.083405,-16.989197c0,0 -2.682373,15.873291 -17.409515,23.729553c-13.140015,7.009583 -22.232086,5.045776 -31.317413,1.325195c-12.455811,-5.10083 -13.756958,-16.983704 -13.756958,-16.983704"/>
    <path fill="#000000" stroke="#000000" stroke-width="9" stroke-linecap="square" stroke-miterlimit="4" id="path4111-2-7-2" d="m518.439148,222.744843c31.549683,19.659424 38.639832,52.95224 23.622681,70.789825c-11.026367,13.09729 -24.698242,22.095703 -42.392822,14.878357c-25.597168,-10.440735 -18.356934,-25.996582 -38.961151,-40.783051c-18.106323,-12.993927 -21.82373,-34.816162 -12.955933,-46.839691c10.60318,-14.376434 39.137482,-17.704926 70.687225,1.954559z"/>
    <path fill="#ffffff" stroke="#000000" stroke-width="9" stroke-linecap="square" stroke-miterlimit="4" id="path7046-3-1-6" d="m456.61377,251.785583c3.890442,13.115143 16.975708,19.976593 29.208191,15.315674c12.232361,-4.660858 19.002686,-19.087769 15.112244,-32.202911c-3.890442,-13.115112 -16.975708,-19.976563 -29.208191,-15.315704c-12.232452,4.660889 -19.002716,19.08783 -15.112244,32.202942z"/>
    <path fill="none" stroke="#000000" stroke-width="9" stroke-linecap="square" stroke-miterlimit="4" id="path8989-4-5-1" d="m488.561157,241.68927c-4.731567,-2.950317 -10.661255,-2.832733 -20.009094,5.61554"/>
    <path fill="#000000" stroke="#000000" stroke-width="9" stroke-linecap="square" stroke-miterlimit="4" id="path4113-1-7-2-2" d="m320.503845,228.995087c-30.882294,15.27356 -47.251129,46.663971 -39.838104,77.510468c8.362061,34.795837 50.014099,44.444763 73.360596,32.843628c15.909058,-7.905334 16.911835,-34.967407 28.744812,-47.794189c13.639313,-14.784821 14.371918,-31.395477 7.174744,-51.489532c-8.655273,-24.164673 -38.559814,-26.343994 -69.442047,-11.070374z"/>
    <path fill="#ffffff" stroke="#000000" stroke-width="9" stroke-linecap="square" stroke-miterlimit="4" id="path8987-3-1-13-2" d="m325.925385,256.643646c-0.468079,14.729858 11.787689,27.05069 27.356689,27.501892c15.568909,0.451172 28.584473,-11.137329 29.052551,-25.867188c0.468079,-14.729889 -11.787689,-27.050781 -27.356659,-27.501923c-15.568939,-0.451172 -28.584503,11.137329 -29.052582,25.867218z"/>
    <path fill="none" stroke="#000000" stroke-width="9" stroke-linecap="square" stroke-miterlimit="4" id="path9960-8-4-5-2" d="m370.475098,260.501892c-13.435181,-4.496735 -22.085114,-1.869598 -27.474762,0.390137"/>
   </g>
   <path fill="#000000" stroke="#000000" stroke-width="9" stroke-linecap="square" stroke-miterlimit="4" d="m348.518951,387.112549c-14.819214,20.280457 -41.234161,25.303894 -65.775543,6.791199c-13.46756,-10.158997 -21.097443,-13.934448 -25.49234,-19.633667c-3.819092,-4.952515 -5.590698,-12.016296 -1.675385,-17.736267c14.676666,-21.441528 27.410309,-17.129028 40.562286,-8.106567c28.916504,19.837158 34.000427,-1.046082 44.891266,6.512695c6.373779,4.423767 17.89035,14.489136 7.489716,32.172607z" id="path3133-6-4-6-9-5-8-3"/>
   <path fill="#000000" stroke="#000000" stroke-width="9" stroke-linecap="square" stroke-miterlimit="4" d="m202.410049,344.781616c-2.985397,24.939819 -23.55365,42.258362 -54.017349,38.140137c-16.717468,-2.259827 -25.218613,-1.813904 -31.841904,-4.629822c-5.755463,-2.446899 -10.760071,-7.737366 -10.148514,-14.641968c2.292435,-25.882141 15.50618,-28.359924 31.3918,-26.936401c34.926743,3.129822 29.129562,-17.566711 42.326965,-16.311646c7.723679,0.734497 22.694351,3.868408 22.289001,24.3797z" id="path3133-6-4-6-9-5"/>
  </g>
 </g>
</svg>